<?xml version="1.0" encoding="UTF-8"?>
<!DOCTYPE svg PUBLIC "-//W3C//DTD SVG 1.1//EN" "http://www.w3.org/Graphics/SVG/1.1/DTD/svg11.dtd">
<!-- Creator: CorelDRAW -->
<svg xmlns="http://www.w3.org/2000/svg" xml:space="preserve" width="11.0885mm" height="15.67mm" version="1.1" style="shape-rendering:geometricPrecision; text-rendering:geometricPrecision; image-rendering:optimizeQuality; fill-rule:evenodd; clip-rule:evenodd"
viewBox="0 0 109.01 154.04"
 xmlns:xlink="http://www.w3.org/1999/xlink"
 xmlns:xodm="http://www.corel.com/coreldraw/odm/2003">
 <defs>
  <style type="text/css">
   <![CDATA[
    .fil0 {fill:#2C3E3A}
    .fil1 {fill:white}
   ]]>
  </style>
 </defs>
 <g id="Layer_x0020_1">
  <metadata id="CorelCorpID_0Corel-Layer"/>
  <path class="fil0" d="M50.49 0.14c-10.19,0.73 -17.84,4 -24.89,8.15 -2.97,1.75 -6.78,4.84 -9.16,7.31l-3.94 4.09c-12.7,14.22 -15.95,37.25 -8.71,57.45 9.45,26.4 32.42,51.28 48.38,74.84 1.58,2.33 2.78,3.05 4.75,0.24 4.6,-6.6 9.03,-12.54 13.76,-19.14 18.63,-26.02 44.99,-57.81 36.8,-91.59 -6.08,-25.07 -30.31,-43.25 -56.98,-41.35z"/>
  <path class="fil1" d="M52.52 52.6l-11.62 -11.47c-2.99,-3.16 -5.53,-0.2 -1.59,3.42l4.44 4.33c2.02,2 1.8,1.41 4.39,4.38 1.04,1.19 2.92,3.47 4.29,4.34l0.05 16.07c-1.68,-0.95 -5.78,-5.75 -8.43,-8.26 -4.59,-4.33 -6.52,-7.86 -9.57,-6.21 -0.29,2.18 0.04,2.56 1.19,3.61l15.43 14.92c1.92,2.35 1.38,2.97 1.39,7.47l0.05 10.37c-2.05,-1.04 -2.85,-3.13 -5.05,-5.09 -2.81,-2.5 -6.7,-7.35 -10.09,-10.37 -1.88,-1.68 -2.73,-4.8 -5.84,-3 -0.38,2.38 0.81,2.56 2.02,3.87 1.04,1.12 1.86,2.35 2.89,3.35l11.86 12.63c4.1,4.61 4.18,0.4 4.16,12.01 -0,1.69 -0.47,6.02 0.64,7 3.69,3.22 3.01,-5.18 3.01,-8.09l0 -5.85c0,-2.43 0.73,-2.25 2.19,-3.58 1.15,-1.05 1.69,-1.97 2.78,-3.06l11.81 -11.58c2.52,-2.45 5.24,-4.82 4.34,-7 -2.46,-1 -4.31,1.99 -5.66,3.48 -2.1,2.31 -13.35,13.38 -15.49,14.83l0.04 -12.83c-0,-5.56 0.76,-3.76 7.83,-10.73l7.18 -7.08c0.88,-0.86 1.33,-1.6 2.26,-2.5 2.24,-2.18 0.39,-4.99 -2.9,-2.17 -2.86,2.45 -11.92,12.49 -14.43,14.26l0.06 -10.06c-0.02,-5.19 -0.88,-5 1.89,-7.9l9.8 -9.95c3.35,-3.16 4.39,-3.85 3.67,-6.01 -3.26,-1.1 -6.26,4.3 -9.55,7.07 -2.82,2.38 -4.21,4.56 -5.85,5.25l-0.03 -27.96c0.01,-1.56 0.62,-4.1 -1.27,-4.61 -3.23,-0.87 -2.31,4.56 -2.34,9 -0.06,7.83 0.26,15.94 0.06,23.7z"/>
 </g>
</svg>
